<svg xmlns="http://www.w3.org/2000/svg" xmlns:xlink="http://www.w3.org/1999/xlink" width="975" height="450" viewBox="0 0 975 450">
    <defs>
        <path id="a" d="M0 0h975v450H0z"/>
        <linearGradient id="c" x1="0%" y1="50%" y2="50%">
            <stop offset="0%" stop-color="#42B549"/>
            <stop offset="100%" stop-color="#87D58B"/>
        </linearGradient>
        <linearGradient id="d" x1="100%" x2="0%" y1="50%" y2="50%">
            <stop offset="0%" stop-color="#FF9047"/>
            <stop offset="100%" stop-color="#FF5722"/>
        </linearGradient>
    </defs>
    <g fill="none" fill-rule="evenodd">
        <g>
            <mask id="b" fill="#fff">
                <use xlink:href="#a"/>
            </mask>
            <path stroke="#D5D5D5" d="M.5.5h974v449H.5z"/>
            <path stroke="#D5D5D5" d="M482.577 697.559V-3.724M1021.53 224.674H1.833" mask="url(#b)"/>
        </g>
        <text fill="#000" fill-opacity=".7" font-family="OpenSans-SemiBold, Open Sans" font-size="17" font-weight="500">
            <tspan x="217.46" y="42">Main</tspan>
        </text>
        <text fill="#000" fill-opacity=".7" font-family="OpenSans-SemiBold, Open Sans" font-size="17" font-weight="500">
            <tspan x="664.685" y="42">Secondary</tspan>
        </text>
        <text fill="#000" fill-opacity=".7" font-family="OpenSans-SemiBold, Open Sans" font-size="17" font-weight="500">
            <tspan x="202.964" y="301">Disabled</tspan>
        </text>
        <text fill="#000" fill-opacity=".7" font-family="OpenSans-SemiBold, Open Sans" font-size="17" font-weight="500">
            <tspan x="649" y="301">Low Emphasis</tspan>
        </text>
        <g transform="translate(606 89)">
            <rect width="201" height="45" x=".5" y=".5" fill="#FFF" stroke="#42B549" rx="6"/>
            <path d="M56 12h90v22H56z"/>
            <text fill="#42B549" font-family="OpenSans-SemiBold, Open Sans" font-size="14" font-weight="500" transform="translate(56 12)">
                <tspan x=".467" y="15">Lorem Ipsum</tspan>
            </text>
        </g>
        <g transform="translate(606 337)">
            <rect width="202" height="46" rx="4"/>
            <path d="M56 12h90v22H56z"/>
            <text fill="#42B549" font-family="OpenSans-SemiBold, Open Sans" font-size="14" font-weight="500" transform="translate(56 12)">
                <tspan x=".467" y="15">Lorem Ipsum</tspan>
            </text>
        </g>
        <g transform="translate(137 65)">
            <rect width="202" height="46" fill="url(#c)" rx="6"/>
            <path d="M56 12h90v22H56z"/>
            <text fill="#FFF" font-family="OpenSans-SemiBold, Open Sans" font-size="14" font-weight="500" transform="translate(56 12)">
                <tspan x=".467" y="15">Lorem Ipsum</tspan>
            </text>
        </g>
        <g transform="translate(137 135)">
            <rect width="202" height="46" fill="url(#d)" rx="6"/>
            <path d="M56 12h90v22H56z"/>
            <text fill="#FFF" font-family="OpenSans-SemiBold, Open Sans" font-size="14" font-weight="500" transform="translate(56 12)">
                <tspan x=".467" y="15">Lorem Ipsum</tspan>
            </text>
        </g>
        <g transform="translate(137 337)">
            <rect width="201" height="45" x=".5" y=".5" fill="#E0E0E0" stroke="#E0E0E0" rx="6"/>
            <path d="M56 12h90v22H56z"/>
            <text fill="#000" fill-opacity=".38" font-family="OpenSans-SemiBold, Open Sans" font-size="14" font-weight="500" transform="translate(56 12)">
                <tspan x=".467" y="15">Lorem Ipsum</tspan>
            </text>
        </g>
    </g>
</svg>
